<svg width="341" height="117" viewBox="0 0 341 117" fill="none" xmlns="http://www.w3.org/2000/svg">
	<rect x="0.5" y="0.5" width="334" height="43" rx="7.5" fill="white" />
	<rect x="0.5" y="0.5" width="334" height="43" rx="7.5" stroke="#FFCC15" />
	<rect x="7" y="7" width="140" height="30" rx="8" fill="#F5F6F8" />
	<path d="M48.1903 18.7273L50.0831 24.4517H50.1577L52.0469 18.7273H53.4957L50.9318 26H49.3054L46.745 18.7273H48.1903ZM55.4 26.1101C55.0544 26.1101 54.7431 26.0485 54.4661 25.9254C54.1915 25.8 53.9737 25.6153 53.8127 25.3714C53.6541 25.1276 53.5748 24.8269 53.5748 24.4695C53.5748 24.1617 53.6316 23.9072 53.7452 23.706C53.8588 23.5047 54.0139 23.3438 54.2104 23.223C54.4069 23.1023 54.6283 23.0111 54.8745 22.9496C55.123 22.8857 55.3799 22.8395 55.6451 22.8111C55.9647 22.7779 56.2239 22.7483 56.4228 22.7223C56.6216 22.6939 56.766 22.6513 56.856 22.5945C56.9483 22.5353 56.9945 22.4441 56.9945 22.321V22.2997C56.9945 22.0322 56.9152 21.825 56.7566 21.6783C56.598 21.5315 56.3695 21.4581 56.0712 21.4581C55.7563 21.4581 55.5066 21.5268 55.3219 21.6641C55.1396 21.8014 55.0165 21.9635 54.9526 22.1506L53.7523 21.9801C53.847 21.6487 54.0033 21.3717 54.2211 21.1491C54.4389 20.9242 54.7052 20.7562 55.0201 20.6449C55.3349 20.5312 55.6829 20.4744 56.0641 20.4744C56.3269 20.4744 56.5885 20.5052 56.8489 20.5668C57.1093 20.6283 57.3472 20.7301 57.5627 20.8722C57.7781 21.0118 57.9509 21.2024 58.0811 21.4439C58.2137 21.6854 58.28 21.9872 58.28 22.3494V26H57.0442V25.2507H57.0016C56.9235 25.4022 56.8134 25.5443 56.6713 25.6768C56.5317 25.8071 56.3553 25.9124 56.1422 25.9929C55.9315 26.071 55.6841 26.1101 55.4 26.1101ZM55.7338 25.1655C55.9919 25.1655 56.2156 25.1146 56.405 25.0128C56.5944 24.9086 56.74 24.7713 56.8418 24.6009C56.946 24.4304 56.998 24.2446 56.998 24.0433V23.4006C56.9578 23.4337 56.8891 23.4645 56.7921 23.4929C56.6974 23.5213 56.5908 23.5462 56.4725 23.5675C56.3541 23.5888 56.2369 23.6077 56.1209 23.6243C56.0049 23.6409 55.9043 23.6551 55.8191 23.6669C55.6273 23.6929 55.4557 23.7356 55.3042 23.7947C55.1526 23.8539 55.0331 23.9368 54.9455 24.0433C54.8579 24.1475 54.8141 24.2824 54.8141 24.4482C54.8141 24.6849 54.9005 24.8636 55.0733 24.9844C55.2462 25.1051 55.4663 25.1655 55.7338 25.1655ZM63.2125 28.0455V25.1406H63.1593C63.093 25.2732 62.9971 25.4141 62.8716 25.5632C62.7462 25.71 62.5804 25.8355 62.3745 25.9396C62.1685 26.0438 61.9093 26.0959 61.5968 26.0959C61.1683 26.0959 60.7847 25.9858 60.4462 25.7656C60.1077 25.5455 59.8401 25.2259 59.6436 24.8068C59.4471 24.3878 59.3489 23.8788 59.3489 23.2798C59.3489 22.6738 59.4483 22.1624 59.6472 21.7457C59.8484 21.3267 60.1195 21.0107 60.4604 20.7976C60.8013 20.5821 61.1813 20.4744 61.6003 20.4744C61.9199 20.4744 62.1827 20.5289 62.3887 20.6378C62.5946 20.7443 62.758 20.8733 62.8787 21.0249C62.9995 21.174 63.093 21.3149 63.1593 21.4474H63.2374V20.5455H64.5016V28.0455H63.2125ZM61.9554 25.0412C62.2277 25.0412 62.4597 24.9678 62.6515 24.821C62.8432 24.6719 62.9888 24.4647 63.0882 24.1996C63.1877 23.9344 63.2374 23.6255 63.2374 23.2727C63.2374 22.92 63.1877 22.6134 63.0882 22.353C62.9912 22.0926 62.8468 21.8902 62.655 21.7457C62.4656 21.6013 62.2324 21.5291 61.9554 21.5291C61.669 21.5291 61.4299 21.6037 61.2381 21.7528C61.0463 21.902 60.9019 22.108 60.8049 22.3707C60.7078 22.6335 60.6593 22.9342 60.6593 23.2727C60.6593 23.6136 60.7078 23.9179 60.8049 24.1854C60.9043 24.4505 61.0499 24.66 61.2417 24.8139C61.4358 24.9654 61.6737 25.0412 61.9554 25.0412ZM68.5463 20.5455V21.5398H65.4107V20.5455H68.5463ZM66.1848 19.2386H67.4703V24.3594C67.4703 24.5322 67.4964 24.6648 67.5485 24.7571C67.6029 24.8471 67.6739 24.9086 67.7615 24.9418C67.8491 24.9749 67.9462 24.9915 68.0527 24.9915C68.1332 24.9915 68.2066 24.9856 68.2729 24.9737C68.3416 24.9619 68.3936 24.9512 68.4292 24.9418L68.6458 25.9467C68.5771 25.9704 68.4789 25.9964 68.351 26.0249C68.2256 26.0533 68.0717 26.0698 67.8894 26.0746C67.5674 26.084 67.2774 26.0355 67.0194 25.929C66.7613 25.8201 66.5565 25.652 66.405 25.4247C66.2559 25.1974 66.1825 24.9134 66.1848 24.5724V19.2386ZM69.6214 26V20.5455H70.907V26H69.6214ZM70.2678 19.7713C70.0642 19.7713 69.889 19.7038 69.7422 19.5689C69.5954 19.4316 69.522 19.267 69.522 19.0753C69.522 18.8812 69.5954 18.7166 69.7422 18.5817C69.889 18.4444 70.0642 18.3757 70.2678 18.3757C70.4737 18.3757 70.6489 18.4444 70.7933 18.5817C70.9401 18.7166 71.0135 18.8812 71.0135 19.0753C71.0135 19.267 70.9401 19.4316 70.7933 19.5689C70.6489 19.7038 70.4737 19.7713 70.2678 19.7713ZM73.0208 26.0781C72.8053 26.0781 72.6207 26.0024 72.4668 25.8509C72.3129 25.6993 72.2372 25.5147 72.2395 25.2969C72.2372 25.0838 72.3129 24.9015 72.4668 24.75C72.6207 24.5985 72.8053 24.5227 73.0208 24.5227C73.2291 24.5227 73.4102 24.5985 73.5641 24.75C73.7203 24.9015 73.7997 25.0838 73.802 25.2969C73.7997 25.4413 73.7618 25.5727 73.6884 25.6911C73.6174 25.8094 73.5227 25.9041 73.4043 25.9751C73.2883 26.0438 73.1605 26.0781 73.0208 26.0781ZM73.0208 22.1861C72.8053 22.1861 72.6207 22.1103 72.4668 21.9588C72.3129 21.8049 72.2372 21.6203 72.2395 21.4048C72.2372 21.1918 72.3129 21.0095 72.4668 20.858C72.6207 20.7041 72.8053 20.6271 73.0208 20.6271C73.2291 20.6271 73.4102 20.7041 73.5641 20.858C73.7203 21.0095 73.7997 21.1918 73.802 21.4048C73.7997 21.5469 73.7618 21.6771 73.6884 21.7955C73.6174 21.9138 73.5227 22.0085 73.4043 22.0795C73.2883 22.1506 73.1605 22.1861 73.0208 22.1861Z" fill="#1C2C57" />
	<path d="M81.8345 26.1385C81.2498 26.1385 80.7479 25.9905 80.3288 25.6946C79.9122 25.3963 79.5914 24.9666 79.3665 24.4055C79.1439 23.8421 79.0327 23.1638 79.0327 22.3707C79.035 21.5777 79.1475 20.9029 79.37 20.3466C79.5949 19.7879 79.9157 19.3617 80.3324 19.0682C80.7514 18.7746 81.2521 18.6278 81.8345 18.6278C82.4169 18.6278 82.9176 18.7746 83.3366 19.0682C83.7557 19.3617 84.0765 19.7879 84.299 20.3466C84.5239 20.9053 84.6364 21.58 84.6364 22.3707C84.6364 23.1662 84.5239 23.8456 84.299 24.4091C84.0765 24.9702 83.7557 25.3987 83.3366 25.6946C82.92 25.9905 82.4193 26.1385 81.8345 26.1385ZM81.8345 25.027C82.2891 25.027 82.6477 24.8033 82.9105 24.3558C83.1757 23.906 83.3082 23.2443 83.3082 22.3707C83.3082 21.7931 83.2479 21.3078 83.1271 20.9148C83.0064 20.5218 82.8359 20.2259 82.6158 20.027C82.3956 19.8258 82.1352 19.7251 81.8345 19.7251C81.3823 19.7251 81.0249 19.95 80.7621 20.3999C80.4993 20.8473 80.3667 21.5043 80.3643 22.3707C80.362 22.9508 80.42 23.4384 80.5384 23.8338C80.6591 24.2292 80.8295 24.5275 81.0497 24.7287C81.2699 24.9276 81.5315 25.027 81.8345 25.027ZM88.4015 26.0994C87.8735 26.0994 87.4048 26.0107 86.9952 25.8331C86.588 25.6555 86.2684 25.4129 86.0364 25.1051C85.8068 24.795 85.6931 24.4434 85.6955 24.0504C85.6931 23.745 85.7594 23.4645 85.8944 23.2088C86.0293 22.9531 86.2116 22.7401 86.4412 22.5696C86.6732 22.3968 86.9313 22.2867 87.2154 22.2393V22.1896C86.8413 22.1068 86.5383 21.9162 86.3063 21.6179C86.0766 21.3172 85.963 20.9704 85.9654 20.5774C85.963 20.2034 86.0672 19.8696 86.2779 19.576C86.4886 19.2824 86.7774 19.0516 87.1444 18.8835C87.5113 18.7131 87.9303 18.6278 88.4015 18.6278C88.8678 18.6278 89.2833 18.7131 89.6479 18.8835C90.0149 19.0516 90.3037 19.2824 90.5144 19.576C90.7275 19.8696 90.834 20.2034 90.834 20.5774C90.834 20.9704 90.7168 21.3172 90.4824 21.6179C90.2504 21.9162 89.9509 22.1068 89.584 22.1896V22.2393C89.8681 22.2867 90.1238 22.3968 90.351 22.5696C90.5807 22.7401 90.763 22.9531 90.8979 23.2088C91.0352 23.4645 91.1039 23.745 91.1039 24.0504C91.1039 24.4434 90.9879 24.795 90.7559 25.1051C90.5239 25.4129 90.2042 25.6555 89.7971 25.8331C89.3922 26.0107 88.927 26.0994 88.4015 26.0994ZM88.4015 25.0838C88.6737 25.0838 88.9105 25.0376 89.1117 24.9453C89.3129 24.8506 89.4692 24.718 89.5804 24.5476C89.6917 24.3771 89.7485 24.1806 89.7509 23.9581C89.7485 23.7261 89.6882 23.5213 89.5698 23.3438C89.4538 23.1638 89.294 23.023 89.0904 22.9212C88.8891 22.8194 88.6595 22.7685 88.4015 22.7685C88.141 22.7685 87.909 22.8194 87.7054 22.9212C87.5018 23.023 87.3408 23.1638 87.2225 23.3438C87.1065 23.5213 87.0497 23.7261 87.052 23.9581C87.0497 24.1806 87.1041 24.3771 87.2154 24.5476C87.3266 24.7157 87.4829 24.8471 87.6841 24.9418C87.8877 25.0365 88.1268 25.0838 88.4015 25.0838ZM88.4015 21.7706C88.624 21.7706 88.8205 21.7256 88.9909 21.6357C89.1638 21.5457 89.2999 21.4202 89.3993 21.2592C89.4988 21.0982 89.5497 20.9124 89.552 20.7017C89.5497 20.4934 89.4999 20.3111 89.4029 20.1548C89.3058 19.9962 89.1709 19.8743 88.998 19.7891C88.8252 19.7015 88.6264 19.6577 88.4015 19.6577C88.1718 19.6577 87.9694 19.7015 87.7942 19.7891C87.6214 19.8743 87.4864 19.9962 87.3894 20.1548C87.2947 20.3111 87.2485 20.4934 87.2509 20.7017C87.2485 20.9124 87.2959 21.0982 87.3929 21.2592C87.4924 21.4179 87.6285 21.5433 87.8013 21.6357C87.9765 21.7256 88.1766 21.7706 88.4015 21.7706ZM93.0774 25.1264C92.862 25.1264 92.6773 25.0507 92.5234 24.8991C92.3696 24.7453 92.2938 24.5606 92.2962 24.3452C92.2938 24.1321 92.3696 23.9498 92.5234 23.7983C92.6773 23.6468 92.862 23.571 93.0774 23.571C93.2857 23.571 93.4669 23.6468 93.6207 23.7983C93.777 23.9498 93.8563 24.1321 93.8587 24.3452C93.8563 24.4896 93.8184 24.621 93.745 24.7393C93.674 24.8577 93.5793 24.9524 93.4609 25.0234C93.3449 25.0921 93.2171 25.1264 93.0774 25.1264ZM93.0774 21.522C92.862 21.522 92.6773 21.4463 92.5234 21.2947C92.3696 21.1409 92.2938 20.9562 92.2962 20.7408C92.2938 20.5277 92.3696 20.3454 92.5234 20.1939C92.6773 20.04 92.862 19.9631 93.0774 19.9631C93.2857 19.9631 93.4669 20.04 93.6207 20.1939C93.777 20.3454 93.8563 20.5277 93.8587 20.7408C93.8563 20.8828 93.8184 21.013 93.745 21.1314C93.674 21.2498 93.5793 21.3445 93.4609 21.4155C93.3449 21.4865 93.2171 21.522 93.0774 21.522ZM95.1717 26V25.0483L97.6966 22.5732C97.938 22.3293 98.1393 22.1127 98.3002 21.9233C98.4612 21.7339 98.582 21.5504 98.6625 21.3729C98.743 21.1953 98.7832 21.0059 98.7832 20.8047C98.7832 20.575 98.7311 20.3786 98.627 20.2152C98.5228 20.0495 98.3796 19.9216 98.1973 19.8317C98.015 19.7417 97.8078 19.6967 97.5758 19.6967C97.3367 19.6967 97.1272 19.7464 96.9473 19.8459C96.7673 19.9429 96.6277 20.0814 96.5282 20.2614C96.4312 20.4413 96.3826 20.6555 96.3826 20.9041H95.1291C95.1291 20.4425 95.2344 20.0412 95.4451 19.7003C95.6558 19.3594 95.9458 19.0954 96.3152 18.9084C96.6868 18.7214 97.113 18.6278 97.5936 18.6278C98.0813 18.6278 98.5098 18.719 98.8791 18.9013C99.2484 19.0836 99.5349 19.3333 99.7385 19.6506C99.9444 19.9678 100.047 20.33 100.047 20.7372C100.047 21.0095 99.9953 21.277 99.8912 21.5398C99.787 21.8026 99.6035 22.0937 99.3407 22.4134C99.0803 22.733 98.7145 23.12 98.2434 23.5746L96.9899 24.8494V24.8991H100.157V26H95.1717ZM103.911 26.0994C103.438 26.0994 103.014 26.0107 102.64 25.8331C102.266 25.6532 101.969 25.407 101.748 25.0945C101.531 24.782 101.415 24.4245 101.4 24.022H102.679C102.702 24.3203 102.831 24.5642 103.066 24.7536C103.3 24.9406 103.582 25.0341 103.911 25.0341C104.169 25.0341 104.399 24.9749 104.6 24.8565C104.801 24.7382 104.96 24.5736 105.076 24.3629C105.192 24.1522 105.249 23.9119 105.246 23.642C105.249 23.3674 105.191 23.1236 105.072 22.9105C104.954 22.6974 104.792 22.5305 104.586 22.4098C104.38 22.2867 104.143 22.2251 103.876 22.2251C103.658 22.2228 103.443 22.263 103.233 22.3459C103.022 22.4287 102.855 22.5376 102.732 22.6726L101.542 22.4773L101.922 18.7273H106.141V19.8281H103.013L102.803 21.7564H102.846C102.981 21.5978 103.171 21.4664 103.417 21.3622C103.664 21.2557 103.934 21.2024 104.227 21.2024C104.667 21.2024 105.06 21.3066 105.406 21.5149C105.752 21.7209 106.024 22.005 106.223 22.3672C106.422 22.7294 106.521 23.1437 106.521 23.6101C106.521 24.0907 106.41 24.5192 106.187 24.8956C105.967 25.2696 105.661 25.5644 105.268 25.7798C104.877 25.9929 104.425 26.0994 103.911 26.0994Z" fill="#1C2C57" />
	<rect x="166" y="7" width="130" height="30" rx="8" fill="#F5F6F8" />
	<path d="M186.398 19.8317V18.7273H192.2V19.8317H189.952V26H188.646V19.8317H186.398ZM194.089 26.1101C193.744 26.1101 193.433 26.0485 193.156 25.9254C192.881 25.8 192.663 25.6153 192.502 25.3714C192.344 25.1276 192.264 24.8269 192.264 24.4695C192.264 24.1617 192.321 23.9072 192.435 23.706C192.548 23.5047 192.703 23.3438 192.9 23.223C193.096 23.1023 193.318 23.0111 193.564 22.9496C193.813 22.8857 194.069 22.8395 194.335 22.8111C194.654 22.7779 194.913 22.7483 195.112 22.7223C195.311 22.6939 195.455 22.6513 195.545 22.5945C195.638 22.5353 195.684 22.4441 195.684 22.321V22.2997C195.684 22.0322 195.605 21.825 195.446 21.6783C195.287 21.5315 195.059 21.4581 194.761 21.4581C194.446 21.4581 194.196 21.5268 194.011 21.6641C193.829 21.8014 193.706 21.9635 193.642 22.1506L192.442 21.9801C192.536 21.6487 192.693 21.3717 192.911 21.1491C193.128 20.9242 193.395 20.7562 193.71 20.6449C194.024 20.5312 194.372 20.4744 194.754 20.4744C195.016 20.4744 195.278 20.5052 195.538 20.5668C195.799 20.6283 196.037 20.7301 196.252 20.8722C196.468 21.0118 196.64 21.2024 196.771 21.4439C196.903 21.6854 196.969 21.9872 196.969 22.3494V26H195.734V25.2507H195.691C195.613 25.4022 195.503 25.5443 195.361 25.6768C195.221 25.8071 195.045 25.9124 194.832 25.9929C194.621 26.071 194.374 26.1101 194.089 26.1101ZM194.423 25.1655C194.681 25.1655 194.905 25.1146 195.094 25.0128C195.284 24.9086 195.429 24.7713 195.531 24.6009C195.635 24.4304 195.688 24.2446 195.688 24.0433V23.4006C195.647 23.4337 195.579 23.4645 195.482 23.4929C195.387 23.5213 195.28 23.5462 195.162 23.5675C195.044 23.5888 194.926 23.6077 194.81 23.6243C194.694 23.6409 194.594 23.6551 194.509 23.6669C194.317 23.6929 194.145 23.7356 193.994 23.7947C193.842 23.8539 193.723 23.9368 193.635 24.0433C193.547 24.1475 193.504 24.2824 193.504 24.4482C193.504 24.6849 193.59 24.8636 193.763 24.9844C193.936 25.1051 194.156 25.1655 194.423 25.1655ZM198.866 28.0455C198.691 28.0455 198.528 28.0313 198.379 28.0028C198.232 27.9768 198.115 27.946 198.028 27.9105L198.326 26.9091C198.513 26.9635 198.68 26.9896 198.827 26.9872C198.973 26.9848 199.103 26.9387 199.214 26.8487C199.327 26.7611 199.423 26.6143 199.501 26.4084L199.612 26.1136L197.634 20.5455H198.997L200.254 24.6648H200.311L201.572 20.5455H202.939L200.755 26.6605C200.653 26.9493 200.518 27.1967 200.35 27.4027C200.182 27.611 199.976 27.7696 199.732 27.8786C199.491 27.9898 199.202 28.0455 198.866 28.0455ZM204.627 28.0455C204.452 28.0455 204.29 28.0313 204.141 28.0028C203.994 27.9768 203.877 27.946 203.789 27.9105L204.088 26.9091C204.275 26.9635 204.442 26.9896 204.588 26.9872C204.735 26.9848 204.864 26.9387 204.975 26.8487C205.089 26.7611 205.185 26.6143 205.263 26.4084L205.373 26.1136L203.395 20.5455H204.759L206.016 24.6648H206.073L207.333 20.5455H208.701L206.517 26.6605C206.415 26.9493 206.28 27.1967 206.112 27.4027C205.944 27.611 205.738 27.7696 205.494 27.8786C205.252 27.9898 204.964 28.0455 204.627 28.0455ZM211.784 26.1065C211.251 26.1065 210.79 25.9893 210.399 25.755C210.008 25.5206 209.705 25.1927 209.49 24.7713C209.277 24.3499 209.17 23.8575 209.17 23.294C209.17 22.7306 209.277 22.237 209.49 21.8132C209.705 21.3894 210.008 21.0604 210.399 20.826C210.79 20.5916 211.251 20.4744 211.784 20.4744C212.317 20.4744 212.778 20.5916 213.169 20.826C213.559 21.0604 213.861 21.3894 214.074 21.8132C214.29 22.237 214.398 22.7306 214.398 23.294C214.398 23.8575 214.29 24.3499 214.074 24.7713C213.861 25.1927 213.559 25.5206 213.169 25.755C212.778 25.9893 212.317 26.1065 211.784 26.1065ZM211.791 25.0767C212.08 25.0767 212.321 24.9974 212.515 24.8388C212.71 24.6778 212.854 24.4624 212.949 24.1925C213.046 23.9226 213.094 23.6219 213.094 23.2905C213.094 22.9567 213.046 22.6548 212.949 22.3849C212.854 22.1127 212.71 21.8961 212.515 21.7351C212.321 21.5741 212.08 21.4936 211.791 21.4936C211.495 21.4936 211.249 21.5741 211.052 21.7351C210.858 21.8961 210.713 22.1127 210.616 22.3849C210.521 22.6548 210.474 22.9567 210.474 23.2905C210.474 23.6219 210.521 23.9226 210.616 24.1925C210.713 24.4624 210.858 24.6778 211.052 24.8388C211.249 24.9974 211.495 25.0767 211.791 25.0767ZM215.489 26V20.5455H216.735V21.4545H216.792C216.891 21.1397 217.062 20.897 217.303 20.7266C217.547 20.5537 217.825 20.4673 218.138 20.4673C218.209 20.4673 218.288 20.4709 218.376 20.478C218.466 20.4827 218.54 20.491 218.599 20.5028V21.6854C218.545 21.6664 218.459 21.6499 218.34 21.6357C218.224 21.6191 218.112 21.6108 218.003 21.6108C217.768 21.6108 217.558 21.6617 217.371 21.7635C217.186 21.8629 217.04 22.0014 216.934 22.179C216.827 22.3565 216.774 22.5613 216.774 22.7933V26H215.489ZM220.739 18.7273V26H219.453V18.7273H220.739ZM223.631 26.1101C223.285 26.1101 222.974 26.0485 222.697 25.9254C222.422 25.8 222.204 25.6153 222.043 25.3714C221.885 25.1276 221.805 24.8269 221.805 24.4695C221.805 24.1617 221.862 23.9072 221.976 23.706C222.089 23.5047 222.244 23.3438 222.441 23.223C222.637 23.1023 222.859 23.0111 223.105 22.9496C223.354 22.8857 223.61 22.8395 223.876 22.8111C224.195 22.7779 224.454 22.7483 224.653 22.7223C224.852 22.6939 224.997 22.6513 225.086 22.5945C225.179 22.5353 225.225 22.4441 225.225 22.321V22.2997C225.225 22.0322 225.146 21.825 224.987 21.6783C224.828 21.5315 224.6 21.4581 224.302 21.4581C223.987 21.4581 223.737 21.5268 223.552 21.6641C223.37 21.8014 223.247 21.9635 223.183 22.1506L221.983 21.9801C222.077 21.6487 222.234 21.3717 222.452 21.1491C222.669 20.9242 222.936 20.7562 223.251 20.6449C223.565 20.5312 223.913 20.4744 224.295 20.4744C224.557 20.4744 224.819 20.5052 225.079 20.5668C225.34 20.6283 225.578 20.7301 225.793 20.8722C226.009 21.0118 226.181 21.2024 226.312 21.4439C226.444 21.6854 226.51 21.9872 226.51 22.3494V26H225.275V25.2507H225.232C225.154 25.4022 225.044 25.5443 224.902 25.6768C224.762 25.8071 224.586 25.9124 224.373 25.9929C224.162 26.071 223.915 26.1101 223.631 26.1101ZM223.964 25.1655C224.222 25.1655 224.446 25.1146 224.635 25.0128C224.825 24.9086 224.97 24.7713 225.072 24.6009C225.176 24.4304 225.229 24.2446 225.229 24.0433V23.4006C225.188 23.4337 225.12 23.4645 225.023 23.4929C224.928 23.5213 224.821 23.5462 224.703 23.5675C224.585 23.5888 224.467 23.6077 224.351 23.6243C224.235 23.6409 224.135 23.6551 224.05 23.6669C223.858 23.6929 223.686 23.7356 223.535 23.7947C223.383 23.8539 223.264 23.9368 223.176 24.0433C223.088 24.1475 223.045 24.2824 223.045 24.4482C223.045 24.6849 223.131 24.8636 223.304 24.9844C223.477 25.1051 223.697 25.1655 223.964 25.1655ZM229.089 22.804V26H227.803V20.5455H229.032V21.4723H229.096C229.221 21.1669 229.421 20.9242 229.696 20.7443C229.973 20.5644 230.315 20.4744 230.722 20.4744C231.099 20.4744 231.426 20.5549 231.706 20.7159C231.988 20.8769 232.205 21.1101 232.359 21.4155C232.515 21.7209 232.592 22.0914 232.59 22.527V26H231.305V22.7259C231.305 22.3613 231.21 22.076 231.02 21.87C230.833 21.6641 230.574 21.5611 230.243 21.5611C230.018 21.5611 229.818 21.6108 229.643 21.7102C229.47 21.8073 229.334 21.9482 229.234 22.1328C229.137 22.3175 229.089 22.5412 229.089 22.804ZM233.897 26V20.5455H235.126V21.4723H235.189C235.303 21.1598 235.491 20.916 235.754 20.7408C236.017 20.5632 236.331 20.4744 236.695 20.4744C237.064 20.4744 237.376 20.5644 237.629 20.7443C237.885 20.9219 238.065 21.1645 238.169 21.4723H238.226C238.346 21.1693 238.55 20.9278 238.836 20.7479C239.125 20.5656 239.467 20.4744 239.863 20.4744C240.365 20.4744 240.774 20.633 241.091 20.9503C241.409 21.2675 241.567 21.7304 241.567 22.3388V26H240.278V22.5376C240.278 22.1991 240.188 21.9517 240.008 21.7955C239.828 21.6368 239.608 21.5575 239.348 21.5575C239.038 21.5575 238.795 21.6546 238.62 21.8487C238.447 22.0405 238.361 22.2902 238.361 22.598V26H237.1V22.4844C237.1 22.2027 237.015 21.9777 236.844 21.8097C236.676 21.6416 236.456 21.5575 236.184 21.5575C235.999 21.5575 235.831 21.6049 235.68 21.6996C235.528 21.7919 235.407 21.9233 235.317 22.0938C235.227 22.2618 235.182 22.4583 235.182 22.6832V26H233.897ZM245.251 26.1065C244.718 26.1065 244.256 25.9893 243.866 25.755C243.475 25.5206 243.172 25.1927 242.957 24.7713C242.744 24.3499 242.637 23.8575 242.637 23.294C242.637 22.7306 242.744 22.237 242.957 21.8132C243.172 21.3894 243.475 21.0604 243.866 20.826C244.256 20.5916 244.718 20.4744 245.251 20.4744C245.783 20.4744 246.245 20.5916 246.636 20.826C247.026 21.0604 247.328 21.3894 247.541 21.8132C247.757 22.237 247.864 22.7306 247.864 23.294C247.864 23.8575 247.757 24.3499 247.541 24.7713C247.328 25.1927 247.026 25.5206 246.636 25.755C246.245 25.9893 245.783 26.1065 245.251 26.1065ZM245.258 25.0767C245.547 25.0767 245.788 24.9974 245.982 24.8388C246.176 24.6778 246.321 24.4624 246.415 24.1925C246.513 23.9226 246.561 23.6219 246.561 23.2905C246.561 22.9567 246.513 22.6548 246.415 22.3849C246.321 22.1127 246.176 21.8961 245.982 21.7351C245.788 21.5741 245.547 21.4936 245.258 21.4936C244.962 21.4936 244.716 21.5741 244.519 21.7351C244.325 21.8961 244.179 22.1127 244.082 22.3849C243.988 22.6548 243.94 22.9567 243.94 23.2905C243.94 23.6219 243.988 23.9226 244.082 24.1925C244.179 24.4624 244.325 24.6778 244.519 24.8388C244.716 24.9974 244.962 25.0767 245.258 25.0767ZM252.595 28.0455V25.1406H252.542C252.476 25.2732 252.38 25.4141 252.254 25.5632C252.129 25.71 251.963 25.8355 251.757 25.9396C251.551 26.0438 251.292 26.0959 250.98 26.0959C250.551 26.0959 250.168 25.9858 249.829 25.7656C249.49 25.5455 249.223 25.2259 249.026 24.8068C248.83 24.3878 248.732 23.8788 248.732 23.2798C248.732 22.6738 248.831 22.1624 249.03 21.7457C249.231 21.3267 249.502 21.0107 249.843 20.7976C250.184 20.5821 250.564 20.4744 250.983 20.4744C251.303 20.4744 251.566 20.5289 251.771 20.6378C251.977 20.7443 252.141 20.8733 252.262 21.0249C252.382 21.174 252.476 21.3149 252.542 21.4474H252.62V20.5455H253.884V28.0455H252.595ZM251.338 25.0412C251.61 25.0412 251.843 24.9678 252.034 24.821C252.226 24.6719 252.372 24.4647 252.471 24.1996C252.57 23.9344 252.62 23.6255 252.62 23.2727C252.62 22.92 252.57 22.6134 252.471 22.353C252.374 22.0926 252.23 21.8902 252.038 21.7457C251.848 21.6013 251.615 21.5291 251.338 21.5291C251.052 21.5291 250.813 21.6037 250.621 21.7528C250.429 21.902 250.285 22.108 250.188 22.3707C250.091 22.6335 250.042 22.9342 250.042 23.2727C250.042 23.6136 250.091 23.9179 250.188 24.1854C250.287 24.4505 250.433 24.66 250.624 24.8139C250.819 24.9654 251.057 25.0412 251.338 25.0412ZM257.23 26.0959C256.801 26.0959 256.418 25.9858 256.079 25.7656C255.74 25.5455 255.473 25.2259 255.276 24.8068C255.08 24.3878 254.982 23.8788 254.982 23.2798C254.982 22.6738 255.081 22.1624 255.28 21.7457C255.481 21.3267 255.752 21.0107 256.093 20.7976C256.434 20.5821 256.814 20.4744 257.233 20.4744C257.553 20.4744 257.816 20.5289 258.021 20.6378C258.227 20.7443 258.391 20.8733 258.512 21.0249C258.632 21.174 258.726 21.3149 258.792 21.4474H258.845V18.7273H260.134V26H258.87V25.1406H258.792C258.726 25.2732 258.63 25.4141 258.504 25.5632C258.379 25.71 258.213 25.8355 258.007 25.9396C257.801 26.0438 257.542 26.0959 257.23 26.0959ZM257.588 25.0412C257.86 25.0412 258.093 24.9678 258.284 24.821C258.476 24.6719 258.622 24.4647 258.721 24.1996C258.82 23.9344 258.87 23.6255 258.87 23.2727C258.87 22.92 258.82 22.6134 258.721 22.353C258.624 22.0926 258.48 21.8902 258.288 21.7457C258.098 21.6013 257.865 21.5291 257.588 21.5291C257.302 21.5291 257.063 21.6037 256.871 21.7528C256.679 21.902 256.535 22.108 256.438 22.3707C256.341 22.6335 256.292 22.9342 256.292 23.2727C256.292 23.6136 256.341 23.9179 256.438 24.1854C256.537 24.4505 256.683 24.66 256.874 24.8139C257.069 24.9654 257.307 25.0412 257.588 25.0412ZM263.074 26.1101C262.728 26.1101 262.417 26.0485 262.14 25.9254C261.865 25.8 261.647 25.6153 261.487 25.3714C261.328 25.1276 261.249 24.8269 261.249 24.4695C261.249 24.1617 261.305 23.9072 261.419 23.706C261.533 23.5047 261.688 23.3438 261.884 23.223C262.081 23.1023 262.302 23.0111 262.548 22.9496C262.797 22.8857 263.054 22.8395 263.319 22.8111C263.638 22.7779 263.898 22.7483 264.097 22.7223C264.295 22.6939 264.44 22.6513 264.53 22.5945C264.622 22.5353 264.668 22.4441 264.668 22.321V22.2997C264.668 22.0322 264.589 21.825 264.43 21.6783C264.272 21.5315 264.043 21.4581 263.745 21.4581C263.43 21.4581 263.18 21.5268 262.996 21.6641C262.813 21.8014 262.69 21.9635 262.626 22.1506L261.426 21.9801C261.521 21.6487 261.677 21.3717 261.895 21.1491C262.113 20.9242 262.379 20.7562 262.694 20.6449C263.009 20.5312 263.357 20.4744 263.738 20.4744C264.001 20.4744 264.262 20.5052 264.523 20.5668C264.783 20.6283 265.021 20.7301 265.237 20.8722C265.452 21.0118 265.625 21.2024 265.755 21.4439C265.888 21.6854 265.954 21.9872 265.954 22.3494V26H264.718V25.2507H264.675C264.597 25.4022 264.487 25.5443 264.345 25.6768C264.205 25.8071 264.029 25.9124 263.816 25.9929C263.605 26.071 263.358 26.1101 263.074 26.1101ZM263.408 25.1655C263.666 25.1655 263.889 25.1146 264.079 25.0128C264.268 24.9086 264.414 24.7713 264.516 24.6009C264.62 24.4304 264.672 24.2446 264.672 24.0433V23.4006C264.632 23.4337 264.563 23.4645 264.466 23.4929C264.371 23.5213 264.265 23.5462 264.146 23.5675C264.028 23.5888 263.911 23.6077 263.795 23.6243C263.679 23.6409 263.578 23.6551 263.493 23.6669C263.301 23.6929 263.129 23.7356 262.978 23.7947C262.826 23.8539 262.707 23.9368 262.619 24.0433C262.532 24.1475 262.488 24.2824 262.488 24.4482C262.488 24.6849 262.574 24.8636 262.747 24.9844C262.92 25.1051 263.14 25.1655 263.408 25.1655ZM268.038 26.0781C267.823 26.0781 267.638 26.0024 267.484 25.8509C267.33 25.6993 267.255 25.5147 267.257 25.2969C267.255 25.0838 267.33 24.9015 267.484 24.75C267.638 24.5985 267.823 24.5227 268.038 24.5227C268.247 24.5227 268.428 24.5985 268.582 24.75C268.738 24.9015 268.817 25.0838 268.82 25.2969C268.817 25.4413 268.779 25.5727 268.706 25.6911C268.635 25.8094 268.54 25.9041 268.422 25.9751C268.306 26.0438 268.178 26.0781 268.038 26.0781ZM270.939 26.0781C270.723 26.0781 270.539 26.0024 270.385 25.8509C270.231 25.6993 270.155 25.5147 270.157 25.2969C270.155 25.0838 270.231 24.9015 270.385 24.75C270.539 24.5985 270.723 24.5227 270.939 24.5227C271.147 24.5227 271.328 24.5985 271.482 24.75C271.638 24.9015 271.718 25.0838 271.72 25.2969C271.718 25.4413 271.68 25.5727 271.606 25.6911C271.535 25.8094 271.441 25.9041 271.322 25.9751C271.206 26.0438 271.078 26.0781 270.939 26.0781ZM273.839 26.0781C273.624 26.0781 273.439 26.0024 273.285 25.8509C273.131 25.6993 273.056 25.5147 273.058 25.2969C273.056 25.0838 273.131 24.9015 273.285 24.75C273.439 24.5985 273.624 24.5227 273.839 24.5227C274.047 24.5227 274.229 24.5985 274.382 24.75C274.539 24.9015 274.618 25.0838 274.62 25.2969C274.618 25.4413 274.58 25.5727 274.507 25.6911C274.436 25.8094 274.341 25.9041 274.223 25.9751C274.107 26.0438 273.979 26.0781 273.839 26.0781Z" fill="#1C2C57" />
	<path d="M316 30C315.45 30 314.979 29.8042 314.588 29.4125C314.196 29.0208 314 28.55 314 28C314 27.45 314.196 26.9792 314.588 26.5875C314.979 26.1958 315.45 26 316 26C316.55 26 317.021 26.1958 317.413 26.5875C317.804 26.9792 318 27.45 318 28C318 28.55 317.804 29.0208 317.413 29.4125C317.021 29.8042 316.55 30 316 30ZM316 24C315.45 24 314.979 23.8042 314.588 23.4125C314.196 23.0208 314 22.55 314 22C314 21.45 314.196 20.9792 314.588 20.5875C314.979 20.1958 315.45 20 316 20C316.55 20 317.021 20.1958 317.413 20.5875C317.804 20.9792 318 21.45 318 22C318 22.55 317.804 23.0208 317.413 23.4125C317.021 23.8042 316.55 24 316 24ZM316 18C315.45 18 314.979 17.8042 314.588 17.4125C314.196 17.0208 314 16.55 314 16C314 15.45 314.196 14.9792 314.588 14.5875C314.979 14.1958 315.45 14 316 14C316.55 14 317.021 14.1958 317.413 14.5875C317.804 14.9792 318 15.45 318 16C318 16.55 317.804 17.0208 317.413 17.4125C317.021 17.8042 316.55 18 316 18Z" fill="#1C2C57" />
	<g filter="url(#filter0_d_4949_14889)">
		<rect x="194" y="40" width="141" height="68" rx="8" fill="white" />
		<rect x="194.5" y="40.5" width="140" height="67" rx="7.5" stroke="#1C2C57" />
	</g>
	<path d="M195 74H334" stroke="#1C2C57" />
	<path d="M219.558 85.3577C218.217 85.2243 216.875 85.1243 215.525 85.0493V85.041L215.342 83.9577C215.217 83.191 215.033 82.041 213.083 82.041H210.9C208.958 82.041 208.775 83.141 208.642 83.9493L208.467 85.016C207.692 85.066 206.917 85.116 206.142 85.191L204.442 85.3577C204.092 85.391 203.842 85.6993 203.875 86.041C203.908 86.3827 204.208 86.6327 204.558 86.5993L206.258 86.4327C210.625 85.9993 215.025 86.166 219.442 86.6077C219.467 86.6077 219.483 86.6077 219.508 86.6077C219.825 86.6077 220.1 86.366 220.133 86.041C220.158 85.6993 219.908 85.391 219.558 85.3577Z" fill="#C71A1A" />
	<path d="M218.025 87.784C217.825 87.5757 217.55 87.459 217.267 87.459H206.733C206.45 87.459 206.167 87.5757 205.975 87.784C205.783 87.9923 205.675 88.2757 205.692 88.5673L206.208 97.1173C206.3 98.384 206.417 99.9673 209.325 99.9673H214.675C217.583 99.9673 217.7 98.3923 217.792 97.1173L218.308 88.5757C218.325 88.2757 218.217 87.9923 218.025 87.784ZM213.383 95.7923H210.608C210.267 95.7923 209.983 95.509 209.983 95.1673C209.983 94.8257 210.267 94.5423 210.608 94.5423H213.383C213.725 94.5423 214.008 94.8257 214.008 95.1673C214.008 95.509 213.725 95.7923 213.383 95.7923ZM214.083 92.459H209.917C209.575 92.459 209.292 92.1757 209.292 91.834C209.292 91.4923 209.575 91.209 209.917 91.209H214.083C214.425 91.209 214.708 91.4923 214.708 91.834C214.708 92.1757 214.425 92.459 214.083 92.459Z" fill="#C71A1A" />
	<path d="M212 67C210.022 67 208.089 66.4135 206.444 65.3147C204.8 64.2159 203.518 62.6541 202.761 60.8268C202.004 58.9996 201.806 56.9889 202.192 55.0491C202.578 53.1093 203.53 51.3275 204.929 49.9289C206.327 48.5304 208.109 47.578 210.049 47.1922C211.989 46.8063 214 47.0043 215.827 47.7612C217.654 48.5181 219.216 49.7998 220.315 51.4443C221.414 53.0888 222 55.0222 222 57C222 59.6522 220.946 62.1957 219.071 64.0711C217.196 65.9464 214.652 67 212 67ZM212 48.4286C210.305 48.4286 208.648 48.9313 207.238 49.8731C205.828 50.815 204.73 52.1536 204.081 53.7199C203.432 55.2861 203.263 57.0095 203.593 58.6722C203.924 60.3349 204.74 61.8622 205.939 63.0609C207.138 64.2597 208.665 65.076 210.328 65.4067C211.99 65.7375 213.714 65.5677 215.28 64.919C216.846 64.2702 218.185 63.1716 219.127 61.762C220.069 60.3525 220.571 58.6953 220.571 57C220.571 54.7267 219.668 52.5465 218.061 50.9391C216.453 49.3316 214.273 48.4286 212 48.4286ZM211.043 60.3929L217.471 54.6786L216.529 53.6071L210.571 58.8786L207.507 55.7786L206.493 56.7929L210.064 60.3643C210.131 60.4305 210.21 60.4829 210.297 60.5184C210.384 60.554 210.477 60.572 210.571 60.5714C210.745 60.5712 210.913 60.5077 211.043 60.3929Z" fill="#1C2C57" />
	<path d="M227.557 52.3643V50.8182H235.68V52.3643H232.533V61H230.704V52.3643H227.557ZM238.325 61.1541C237.841 61.1541 237.406 61.0679 237.018 60.8956C236.633 60.7199 236.328 60.4614 236.103 60.12C235.881 59.7786 235.77 59.3577 235.77 58.8572C235.77 58.4264 235.849 58.0701 236.009 57.7884C236.168 57.5066 236.385 57.2812 236.66 57.1122C236.935 56.9432 237.245 56.8156 237.589 56.7294C237.938 56.6399 238.297 56.5753 238.668 56.5355C239.116 56.4891 239.479 56.4477 239.757 56.4112C240.036 56.3714 240.238 56.3118 240.364 56.2322C240.493 56.1494 240.558 56.0218 240.558 55.8494V55.8196C240.558 55.4451 240.446 55.1551 240.224 54.9496C240.002 54.7441 239.683 54.6413 239.265 54.6413C238.824 54.6413 238.474 54.7375 238.216 54.9297C237.961 55.1219 237.788 55.349 237.699 55.6108L236.018 55.3722C236.151 54.9081 236.37 54.5204 236.675 54.2088C236.98 53.8939 237.353 53.6586 237.793 53.5028C238.234 53.3438 238.721 53.2642 239.255 53.2642C239.623 53.2642 239.989 53.3073 240.354 53.3935C240.718 53.4796 241.051 53.6222 241.353 53.821C241.655 54.0166 241.897 54.2834 242.079 54.6214C242.264 54.9595 242.357 55.3821 242.357 55.8892V61H240.627V59.951H240.567C240.458 60.1631 240.304 60.362 240.105 60.5476C239.91 60.7299 239.663 60.8774 239.364 60.9901C239.069 61.0994 238.723 61.1541 238.325 61.1541ZM238.793 59.8317C239.154 59.8317 239.467 59.7604 239.732 59.6179C239.997 59.4721 240.201 59.2798 240.344 59.0412C240.49 58.8026 240.562 58.5424 240.562 58.2607V57.3608C240.506 57.4072 240.41 57.4503 240.274 57.4901C240.142 57.5298 239.992 57.5646 239.827 57.5945C239.661 57.6243 239.497 57.6508 239.335 57.674C239.172 57.6972 239.031 57.7171 238.912 57.7337C238.643 57.7701 238.403 57.8298 238.191 57.9126C237.979 57.9955 237.812 58.1115 237.689 58.2607C237.566 58.4065 237.505 58.5954 237.505 58.8274C237.505 59.1589 237.626 59.4091 237.868 59.5781C238.11 59.7472 238.418 59.8317 238.793 59.8317ZM245.012 63.8636C244.767 63.8636 244.54 63.8438 244.331 63.804C244.125 63.7675 243.961 63.7244 243.839 63.6747L244.256 62.2727C244.518 62.349 244.752 62.3854 244.957 62.3821C245.163 62.3788 245.344 62.3142 245.499 62.1882C245.658 62.0656 245.793 61.8601 245.902 61.5717L246.056 61.1591L243.287 53.3636H245.196L246.956 59.1307H247.036L248.8 53.3636H250.714L247.657 61.9247C247.514 62.3291 247.326 62.6754 247.09 62.9638C246.855 63.2554 246.567 63.4775 246.225 63.63C245.887 63.7857 245.483 63.8636 245.012 63.8636ZM253.078 63.8636C252.833 63.8636 252.606 63.8438 252.397 63.804C252.192 63.7675 252.028 63.7244 251.905 63.6747L252.323 62.2727C252.585 62.349 252.818 62.3854 253.024 62.3821C253.229 62.3788 253.41 62.3142 253.566 62.1882C253.725 62.0656 253.859 61.8601 253.968 61.5717L254.123 61.1591L251.353 53.3636H253.262L255.022 59.1307H255.102L256.867 53.3636H258.781L255.723 61.9247C255.581 62.3291 255.392 62.6754 255.157 62.9638C254.921 63.2554 254.633 63.4775 254.292 63.63C253.953 63.7857 253.549 63.8636 253.078 63.8636ZM263.097 61.1491C262.352 61.1491 261.705 60.9851 261.159 60.657C260.612 60.3288 260.187 59.8698 259.886 59.2798C259.588 58.6899 259.438 58.0005 259.438 57.2116C259.438 56.4228 259.588 55.7318 259.886 55.1385C260.187 54.5452 260.612 54.0845 261.159 53.7564C261.705 53.4283 262.352 53.2642 263.097 53.2642C263.843 53.2642 264.49 53.4283 265.036 53.7564C265.583 54.0845 266.006 54.5452 266.304 55.1385C266.606 55.7318 266.757 56.4228 266.757 57.2116C266.757 58.0005 266.606 58.6899 266.304 59.2798C266.006 59.8698 265.583 60.3288 265.036 60.657C264.49 60.9851 263.843 61.1491 263.097 61.1491ZM263.107 59.7074C263.512 59.7074 263.85 59.5964 264.122 59.3743C264.393 59.1489 264.596 58.8473 264.728 58.4695C264.864 58.0916 264.932 57.6707 264.932 57.2067C264.932 56.7393 264.864 56.3168 264.728 55.9389C264.596 55.5578 264.393 55.2545 264.122 55.0291C263.85 54.8037 263.512 54.6911 263.107 54.6911C262.693 54.6911 262.348 54.8037 262.073 55.0291C261.802 55.2545 261.598 55.5578 261.462 55.9389C261.329 56.3168 261.263 56.7393 261.263 57.2067C261.263 57.6707 261.329 58.0916 261.462 58.4695C261.598 58.8473 261.802 59.1489 262.073 59.3743C262.348 59.5964 262.693 59.7074 263.107 59.7074ZM268.284 61V53.3636H270.029V54.6364H270.109C270.248 54.1955 270.487 53.8558 270.825 53.6172C271.166 53.3752 271.555 53.2543 271.993 53.2543C272.092 53.2543 272.203 53.2592 272.326 53.2692C272.452 53.2758 272.556 53.2874 272.639 53.304V54.9595C272.563 54.933 272.442 54.9098 272.276 54.8899C272.114 54.8667 271.956 54.8551 271.804 54.8551C271.476 54.8551 271.181 54.9264 270.919 55.0689C270.661 55.2081 270.457 55.402 270.308 55.6506C270.158 55.8991 270.084 56.1858 270.084 56.5107V61H268.284Z" fill="#1C2C57" />
	<path d="M237.102 90.9091C237.102 92.0062 236.897 92.9458 236.486 93.728C236.078 94.5069 235.521 95.1035 234.815 95.5178C234.113 95.9321 233.316 96.1392 232.424 96.1392C231.532 96.1392 230.734 95.9321 230.028 95.5178C229.325 95.1001 228.768 94.5019 228.357 93.723C227.95 92.9408 227.746 92.0028 227.746 90.9091C227.746 89.812 227.95 88.8741 228.357 88.0952C228.768 87.313 229.325 86.7147 230.028 86.3004C230.734 85.8861 231.532 85.679 232.424 85.679C233.316 85.679 234.113 85.8861 234.815 86.3004C235.521 86.7147 236.078 87.313 236.486 88.0952C236.897 88.8741 237.102 89.812 237.102 90.9091ZM235.248 90.9091C235.248 90.1368 235.127 89.4856 234.885 88.9553C234.646 88.4216 234.315 88.0189 233.891 87.7472C233.466 87.4721 232.978 87.3345 232.424 87.3345C231.871 87.3345 231.382 87.4721 230.957 87.7472C230.533 88.0189 230.2 88.4216 229.958 88.9553C229.719 89.4856 229.6 90.1368 229.6 90.9091C229.6 91.6813 229.719 92.3343 229.958 92.8679C230.2 93.3982 230.533 93.8009 230.957 94.076C231.382 94.3478 231.871 94.4837 232.424 94.4837C232.978 94.4837 233.466 94.3478 233.891 94.076C234.315 93.8009 234.646 93.3982 234.885 92.8679C235.127 92.3343 235.248 91.6813 235.248 90.9091ZM240.293 85.8182V86.8324C240.293 87.1241 240.236 87.4273 240.124 87.7422C240.014 88.0537 239.864 88.352 239.671 88.6371C239.479 88.9188 239.26 89.1607 239.015 89.3629L238.18 88.821C238.362 88.5459 238.521 88.2493 238.657 87.9311C238.793 87.6096 238.861 87.2467 238.861 86.8423V85.8182H240.293ZM244.217 96.1491C243.454 96.1491 242.8 95.9818 242.253 95.647C241.709 95.3123 241.29 94.8499 240.995 94.2599C240.703 93.6667 240.558 92.9839 240.558 92.2116C240.558 91.4361 240.707 90.7517 241.005 90.1584C241.303 89.5618 241.724 89.0978 242.268 88.7663C242.815 88.4316 243.461 88.2642 244.207 88.2642C244.826 88.2642 245.375 88.3786 245.852 88.6072C246.333 88.8326 246.716 89.1525 247.001 89.5668C247.286 89.9777 247.448 90.4583 247.488 91.0085H245.768C245.698 90.6406 245.532 90.334 245.271 90.0888C245.012 89.8402 244.666 89.7159 244.232 89.7159C243.864 89.7159 243.54 89.8153 243.262 90.0142C242.984 90.2098 242.767 90.4915 242.611 90.8594C242.458 91.2273 242.382 91.6681 242.382 92.1818C242.382 92.7022 242.458 93.1496 242.611 93.5241C242.763 93.8954 242.977 94.1821 243.252 94.3842C243.531 94.5831 243.857 94.6825 244.232 94.6825C244.497 94.6825 244.734 94.6328 244.942 94.5334C245.155 94.4306 245.332 94.2831 245.474 94.0909C245.617 93.8987 245.715 93.665 245.768 93.3899H247.488C247.445 93.9302 247.286 94.4091 247.011 94.8267C246.736 95.241 246.361 95.5658 245.887 95.8011C245.413 96.0331 244.856 96.1491 244.217 96.1491ZM250.765 91.5256V96H248.966V85.8182H250.726V89.6612H250.815C250.994 89.2304 251.271 88.8906 251.645 88.642C252.023 88.3902 252.504 88.2642 253.087 88.2642C253.617 88.2642 254.08 88.3752 254.474 88.5973C254.869 88.8194 255.174 89.1442 255.389 89.5717C255.608 89.9993 255.717 90.5213 255.717 91.1378V96H253.917V91.4162C253.917 90.9025 253.785 90.5031 253.52 90.218C253.258 89.9297 252.89 89.7855 252.416 89.7855C252.098 89.7855 251.813 89.8551 251.561 89.9943C251.312 90.1302 251.117 90.3274 250.974 90.5859C250.835 90.8445 250.765 91.1577 250.765 91.5256ZM257.552 96V88.3636H259.351V96H257.552ZM258.456 87.2798C258.171 87.2798 257.926 87.1854 257.721 86.9964C257.515 86.8042 257.412 86.5739 257.412 86.3054C257.412 86.0336 257.515 85.8033 257.721 85.6143C257.926 85.4221 258.171 85.326 258.456 85.326C258.745 85.326 258.99 85.4221 259.192 85.6143C259.398 85.8033 259.501 86.0336 259.501 86.3054C259.501 86.5739 259.398 86.8042 259.192 86.9964C258.99 87.1854 258.745 87.2798 258.456 87.2798ZM261.202 96V88.3636H262.947V89.6364H263.027C263.166 89.1955 263.404 88.8558 263.743 88.6172C264.084 88.3752 264.473 88.2543 264.911 88.2543C265.01 88.2543 265.121 88.2592 265.244 88.2692C265.37 88.2758 265.474 88.2874 265.557 88.304V89.9595C265.481 89.933 265.36 89.9098 265.194 89.8899C265.032 89.8667 264.874 89.8551 264.722 89.8551C264.394 89.8551 264.099 89.9264 263.837 90.0689C263.578 90.2081 263.375 90.402 263.225 90.6506C263.076 90.8991 263.002 91.1858 263.002 91.5107V96H261.202ZM266.753 96V88.3636H268.553V96H266.753ZM267.658 87.2798C267.373 87.2798 267.127 87.1854 266.922 86.9964C266.716 86.8042 266.614 86.5739 266.614 86.3054C266.614 86.0336 266.716 85.8033 266.922 85.6143C267.127 85.4221 267.373 85.326 267.658 85.326C267.946 85.326 268.191 85.4221 268.393 85.6143C268.599 85.8033 268.702 86.0336 268.702 86.3054C268.702 86.5739 268.599 86.8042 268.393 86.9964C268.191 87.1854 267.946 87.2798 267.658 87.2798ZM276.439 90.3821L274.798 90.5611C274.752 90.3954 274.671 90.2396 274.555 90.0938C274.442 89.9479 274.289 89.8303 274.097 89.7408C273.905 89.6513 273.67 89.6065 273.391 89.6065C273.017 89.6065 272.702 89.6877 272.447 89.8501C272.195 90.0125 272.07 90.223 272.074 90.4815C272.07 90.7036 272.152 90.8842 272.317 91.0234C272.486 91.1626 272.765 91.277 273.153 91.3665L274.455 91.6449C275.178 91.8007 275.715 92.0476 276.066 92.3857C276.421 92.7237 276.599 93.1662 276.603 93.7131C276.599 94.1937 276.459 94.6179 276.18 94.9858C275.905 95.3504 275.522 95.6354 275.032 95.8409C274.541 96.0464 273.978 96.1491 273.341 96.1491C272.407 96.1491 271.654 95.9536 271.084 95.5625C270.514 95.1681 270.175 94.6196 270.065 93.9169L271.82 93.7479C271.9 94.0926 272.069 94.3527 272.327 94.5284C272.586 94.7041 272.922 94.7919 273.336 94.7919C273.764 94.7919 274.107 94.7041 274.366 94.5284C274.627 94.3527 274.758 94.1357 274.758 93.8771C274.758 93.6584 274.674 93.4777 274.505 93.3352C274.339 93.1927 274.081 93.0833 273.729 93.0071L272.427 92.7337C271.694 92.5812 271.152 92.3243 270.801 91.9631C270.45 91.5985 270.276 91.1378 270.279 90.581C270.276 90.1103 270.403 89.7027 270.662 89.358C270.924 89.0099 271.287 88.7415 271.751 88.5526C272.218 88.3603 272.756 88.2642 273.366 88.2642C274.261 88.2642 274.965 88.4548 275.479 88.8359C275.996 89.2171 276.316 89.7325 276.439 90.3821ZM279.887 91.5256V96H278.087V85.8182H279.847V89.6612H279.936C280.115 89.2304 280.392 88.8906 280.767 88.642C281.144 88.3902 281.625 88.2642 282.208 88.2642C282.739 88.2642 283.201 88.3752 283.595 88.5973C283.99 88.8194 284.295 89.1442 284.51 89.5717C284.729 89.9993 284.838 90.5213 284.838 91.1378V96H283.039V91.4162C283.039 90.9025 282.906 90.5031 282.641 90.218C282.379 89.9297 282.011 89.7855 281.537 89.7855C281.219 89.7855 280.934 89.8551 280.682 89.9943C280.433 90.1302 280.238 90.3274 280.095 90.5859C279.956 90.8445 279.887 91.1577 279.887 91.5256Z" fill="#C71A1A" />
	<defs>
		<filter id="filter0_d_4949_14889" x="192" y="40" width="149" height="77" filterUnits="userSpaceOnUse" color-interpolation-filters="sRGB">
			<feFlood flood-opacity="0" result="BackgroundImageFix" />
			<feColorMatrix in="SourceAlpha" type="matrix" values="0 0 0 0 0 0 0 0 0 0 0 0 0 0 0 0 0 0 127 0" result="hardAlpha" />
			<feOffset dx="2" dy="5" />
			<feGaussianBlur stdDeviation="2" />
			<feComposite in2="hardAlpha" operator="out" />
			<feColorMatrix type="matrix" values="0 0 0 0 0 0 0 0 0 0 0 0 0 0 0 0 0 0 0.6 0" />
			<feBlend mode="normal" in2="BackgroundImageFix" result="effect1_dropShadow_4949_14889" />
			<feBlend mode="normal" in="SourceGraphic" in2="effect1_dropShadow_4949_14889" result="shape" />
		</filter>
	</defs>
</svg>
